<svg xmlns="http://www.w3.org/2000/svg" width="153.162" height="124.156" viewBox="0 0 153.162 124.156">
  <g id="Group_6" data-name="Group 6" transform="translate(-165.52 -90.586)">
    <path id="Path_1" data-name="Path 1" d="M281.111,396.57c-3.931,0-6.689-2.931-6.689-7.827,0-2.966,1.034-8.172,6.655-8.172a7.4,7.4,0,0,1,4.862,1.655l.31-.069.31-4.758-.138-.173a16.646,16.646,0,0,0-6.379-1.275c-8.931,0-12.034,6.9-12.034,12.93,0,6.62,4.034,12.448,12.448,12.448a14.631,14.631,0,0,0,5.9-1.206l.172-.207.241-5.138-.241-.138A8.426,8.426,0,0,1,281.111,396.57Z" transform="translate(-71.76 -199.808)" fill="#fff"></path>
    <path id="Path_2" data-name="Path 2" d="M349.04,397.513l-.276.242c-.586,2.379-.724,2.9-1.552,5.586l-.9,2.965-.759,2.586-.655-2.448-1-3.655-1.379-5.241-.276-.207c-2.69.207-3.276.242-6.1.31l-.172.242c1.241,3.275,4.448,11.93,6.586,18.551-1.414,3.586-1.689,4.206-3.241,7.62l.172.276c.862-.034,1.827-.069,2.724-.069.862,0,1.758.035,2.62.035l.241-.207c1.9-7.448,2.828-10.344,7.379-22.344.517-1.379,1.035-2.724,1.517-4.069l-.138-.276Z" transform="translate(-119.348 -214.785)" fill="#fff"></path>
    <path id="Path_3" data-name="Path 3" d="M406.979,400.639a5.45,5.45,0,0,1,3.379,1.242l.345-.1c.138-1.827.172-2.31.448-4.137l-.172-.207a14.33,14.33,0,0,0-4.827-.9c-8.1,0-9.689,6.138-9.689,9.655,0,3.965,2.068,9.344,9.827,9.344a14.444,14.444,0,0,0,4.448-.759l.207-.207.138-4.137-.276-.172a6.143,6.143,0,0,1-3.586,1.1c-3.9,0-4.689-3.241-4.689-5.31C402.531,403.536,403.635,400.639,406.979,400.639Z" transform="translate(-161.702 -214.221)" fill="#fff"></path>
    <path id="Path_4" data-name="Path 4" d="M455.939,394.714c2.31-.1,3.241-.138,5.758-.1l.207-.241c-.172-3.965-.345-7.586-.345-18.482,0-3.276.034-4.827.172-8.551l-.241-.241-5.9.931-.138.207c.345,4.207.379,5.345.448,10.93.035,2.034.035,4.069.035,6.1,0,3.724-.069,5.793-.207,9.206Z" transform="translate(-203.008 -193.607)" fill="#fff"></path>
    <path id="Path_5" data-name="Path 5" d="M498.71,397.307a12.391,12.391,0,0,0-4.207-.655c-6,0-9.379,3.207-9.379,9.551a10.954,10.954,0,0,0,1.621,6.31c.9,1.345,2.586,3.207,7.517,3.207,7.31,0,9.275-4.413,9.275-9.585C503.538,404.789,503.538,399.2,498.71,397.307Zm-4.379,14.758a2.788,2.788,0,0,1-1.931-.793c-.586-.586-1.241-1.758-1.241-5.1,0-1,0-3.207.69-4.414a2.855,2.855,0,0,1,2.517-1.552,2.9,2.9,0,0,1,2.207,1.069c.828,1,1,2.965,1,4.827C497.573,408.927,497.193,412.065,494.331,412.065Z" transform="translate(-223.782 -214.302)" fill="#fff"></path>
    <path id="Path_6" data-name="Path 6" d="M571.169,414.743c-.172-3.034-.172-4-.241-7.379v-2.689c-.034-3.31-.069-4.9-.931-6.31a4.731,4.731,0,0,0-4.276-2.069c-2.1,0-3.931,1.1-5.517,2.035l.069-1.9-.345-.241c-2.655.551-3.241.655-5.827,1l-.207.241a95.922,95.922,0,0,1,.483,10.793c0,2.207-.034,4.414-.069,6.62l.207.207c2.483-.1,3-.1,5.758-.1l.207-.207c-.207-5.31-.241-6.655-.276-12.827a4.734,4.734,0,0,1,2.655-1.069c1.9,0,2.069,2.034,2.172,3.276.069,1.138.1,5.862.1,7.172,0,1.172-.034,2.379-.034,3.551l.207.207c2.276-.069,2.862-.1,5.62-.1Z" transform="translate(-271.933 -213.98)" fill="#fff"></path>
    <path id="Path_7" data-name="Path 7" d="M629.557,415.638a13.319,13.319,0,0,0,5.931-1.241l.207-.276.241-3.9-.241-.1a10.538,10.538,0,0,1-5.379,1.483c-2.069,0-3.483-.655-4.31-1.9a4.887,4.887,0,0,1-.759-2.1l11.137-.207.207-.241a20.211,20.211,0,0,0-.552-5.137c-1.207-4.069-3.862-4.9-5.034-5.172a8.831,8.831,0,0,0-2.448-.311c-5.414,0-9,3.552-9,9.517a11.471,11.471,0,0,0,.828,4.517C622.385,415.224,627.074,415.638,629.557,415.638ZM626.9,400.6a2.647,2.647,0,0,1,3.586.828,4.212,4.212,0,0,1,.517,2.379l-5.758.138A4.114,4.114,0,0,1,626.9,400.6Z" transform="translate(-317.909 -214.221)" fill="#fff"></path>
    <path id="Path_8" data-name="Path 8" d="M605.892,480.468a1.947,1.947,0,0,0-.409-.236q-.195-.079-.425-.163h-.021l-.546-.147-.021-.01c-.259-.077-.445-.138-.556-.184a.88.88,0,0,1-.294-.194.9.9,0,0,1-.142-.215.666.666,0,0,1-.058-.289.845.845,0,0,1,.309-.666,1.352,1.352,0,0,1,.908-.268,2.15,2.15,0,0,1,.792.131,2.5,2.5,0,0,1,.582.32l.053-.021.073-.609-.042-.074-.063-.021a5.255,5.255,0,0,0-.656-.225,2.7,2.7,0,0,0-.656-.068,2.781,2.781,0,0,0-.881.126,1.7,1.7,0,0,0-.614.341,1.419,1.419,0,0,0-.351.477,1.317,1.317,0,0,0-.115.535,1.372,1.372,0,0,0,.126.619,1.192,1.192,0,0,0,.325.409,1.66,1.66,0,0,0,.409.241q.21.084.493.178l.5.147a2.907,2.907,0,0,1,.855.352.728.728,0,0,1,.257.635.926.926,0,0,1-.121.477.936.936,0,0,1-.315.325,1.369,1.369,0,0,1-.425.173,2.056,2.056,0,0,1-.462.052,2.566,2.566,0,0,1-.5-.052,2.2,2.2,0,0,1-.53-.178,1.7,1.7,0,0,1-.247-.147,3.048,3.048,0,0,1-.257-.22l-.084.031v.052c-.007.133-.014.231-.021.294s-.021.151-.042.262l.052.084a3.593,3.593,0,0,0,.672.294,2.955,2.955,0,0,0,.892.115,2.8,2.8,0,0,0,.965-.147,1.69,1.69,0,0,0,.635-.388,1.482,1.482,0,0,0,.341-.53,1.7,1.7,0,0,0,.1-.583,1.286,1.286,0,0,0-.141-.619A1.244,1.244,0,0,0,605.892,480.468Z" transform="translate(-306.125 -270.932)" fill="#fff"></path>
    <path id="Path_9" data-name="Path 9" d="M621.262,474.446l.052-1.438-.063-.063-.608.147-.073.063.042,1.291-.829-.021-.063.063-.021.43.052.073.85-.021v2.655l-.01.546q0,.43.026.7a1.51,1.51,0,0,0,.142.509.823.823,0,0,0,.372.378,1.5,1.5,0,0,0,.7.136,2.082,2.082,0,0,0,.267-.016c.08-.01.177-.026.289-.047l.073-.095.031-.472-.084-.052a1.265,1.265,0,0,1-.483.116.582.582,0,0,1-.509-.189,1.151,1.151,0,0,1-.152-.588q-.01-.241-.011-.776v-2.8l1.175.021.073-.053.021-.451-.052-.073Z" transform="translate(-318.008 -267.721)" fill="#fff"></path>
    <path id="Path_10" data-name="Path 10" d="M593.8,479.006q0-.262.005-.509t.026-.624l-.063-.063-.629.094-.063.063q.031.472.047.96t.037,1.17q.011.818.011,1.752,0,.64-.011,1.333l.053.052.63-.011.063-.063q-.042-.986-.074-2.077T593.8,479.006Z" transform="translate(-299.367 -271.128)" fill="#fff"></path>
    <path id="Path_11" data-name="Path 11" d="M593.691,470.123l.073-.084.011-.651-.074-.084-.672.063-.084.084-.011.651.084.084Z" transform="translate(-299.269 -265.172)" fill="#fff"></path>
    <path id="Path_12" data-name="Path 12" d="M573.921,477.82l-.472-.01a6.836,6.836,0,0,0-1.149.079,1.774,1.774,0,0,0-.834.4,2.044,2.044,0,0,0-.435.562,1.769,1.769,0,0,0-.194.866,1.981,1.981,0,0,0,.089.625,1.44,1.44,0,0,0,.231.446,1.687,1.687,0,0,0,.284.289q.141.11.372.257-.168.294-.257.446t-.33.5l.031.105.462.2q-.189.136-.346.273a2.493,2.493,0,0,0-.31.325,1.684,1.684,0,0,0-.252.441,1.463,1.463,0,0,0-.1.546,1.435,1.435,0,0,0,.189.734,1.581,1.581,0,0,0,.509.535,2.548,2.548,0,0,0,.714.32,2.965,2.965,0,0,0,.8.11,3.113,3.113,0,0,0,.85-.116,2.314,2.314,0,0,0,.729-.346,1.7,1.7,0,0,0,.5-.567,1.549,1.549,0,0,0,.184-.756,1.367,1.367,0,0,0-.241-.792,1.639,1.639,0,0,0-.735-.561q-.136-.063-.278-.116t-.572-.178l-.378-.1-.945-.283.336-.567h.032a2.648,2.648,0,0,0,.535.073,2.1,2.1,0,0,0,.74-.131,1.974,1.974,0,0,0,.625-.373,1.693,1.693,0,0,0,.425-.577,1.761,1.761,0,0,0,.152-.735,1.532,1.532,0,0,0-.215-.866,2.437,2.437,0,0,0-.488-.54l1.049.063.073-.063.042-.441-.042-.073Zm-1.732,4.932.011-.01c.161.049.287.084.377.105l.708.21q.247.073.436.147l.031.01q.116.053.236.115a1.266,1.266,0,0,1,.241.168.806.806,0,0,1,.2.273.931.931,0,0,1,.079.4,1.086,1.086,0,0,1-.388.818,1.654,1.654,0,0,1-1.155.357,2.113,2.113,0,0,1-.739-.116,1.371,1.371,0,0,1-.5-.3,1.254,1.254,0,0,1-.278-.4,1.106,1.106,0,0,1-.089-.425,1.18,1.18,0,0,1,.231-.735A3.754,3.754,0,0,1,572.19,482.752Zm2.046-3.085a1.418,1.418,0,0,1-.362.981,1.29,1.29,0,0,1-1.013.4,1.479,1.479,0,0,1-.96-.336,1.193,1.193,0,0,1-.415-.986,1.4,1.4,0,0,1,.372-.981,1.364,1.364,0,0,1,1.055-.4,1.227,1.227,0,0,1,.965.388A1.4,1.4,0,0,1,574.236,479.667Z" transform="translate(-283.707 -271.128)" fill="#fff"></path>
    <path id="Path_13" data-name="Path 13" d="M666.916,480.468a1.949,1.949,0,0,0-.409-.236q-.194-.079-.425-.163h-.021l-.545-.147-.021-.01q-.388-.116-.556-.184a.884.884,0,0,1-.294-.194.9.9,0,0,1-.141-.215.665.665,0,0,1-.058-.289.845.845,0,0,1,.309-.666,1.353,1.353,0,0,1,.908-.268,2.149,2.149,0,0,1,.792.131,2.5,2.5,0,0,1,.583.32l.053-.021.073-.609-.042-.074-.063-.021a5.25,5.25,0,0,0-.656-.225,2.708,2.708,0,0,0-.656-.068,2.778,2.778,0,0,0-.881.126,1.693,1.693,0,0,0-.614.341,1.42,1.42,0,0,0-.352.477,1.316,1.316,0,0,0-.115.535,1.377,1.377,0,0,0,.126.619,1.2,1.2,0,0,0,.325.409,1.663,1.663,0,0,0,.409.241q.21.084.493.178l.5.147a2.9,2.9,0,0,1,.855.352.728.728,0,0,1,.257.635.922.922,0,0,1-.121.477.936.936,0,0,1-.315.325,1.364,1.364,0,0,1-.425.173,2.055,2.055,0,0,1-.462.052,2.568,2.568,0,0,1-.5-.052,2.2,2.2,0,0,1-.53-.178,1.69,1.69,0,0,1-.247-.147,3.078,3.078,0,0,1-.257-.22l-.084.031v.052q-.011.2-.021.294c-.007.063-.021.151-.042.262l.052.084a3.6,3.6,0,0,0,.672.294,2.953,2.953,0,0,0,.892.115,2.8,2.8,0,0,0,.965-.147,1.684,1.684,0,0,0,.635-.388,1.476,1.476,0,0,0,.341-.53,1.7,1.7,0,0,0,.1-.583,1.286,1.286,0,0,0-.142-.619A1.242,1.242,0,0,0,666.916,480.468Z" transform="translate(-348.854 -270.932)" fill="#fff"></path>
    <path id="Path_14" data-name="Path 14" d="M647.6,482.588a1.928,1.928,0,0,1-.667-.121,1.71,1.71,0,0,1-.6-.383,1.85,1.85,0,0,1-.435-.687,2.791,2.791,0,0,1-.162-1,3.2,3.2,0,0,1,.157-1.018,1.819,1.819,0,0,1,.5-.787,1.906,1.906,0,0,1,.562-.347,1.819,1.819,0,0,1,.7-.136,1.64,1.64,0,0,1,.719.136,2.464,2.464,0,0,1,.541.367l.095-.042.073-.588-.052-.094a2.837,2.837,0,0,0-.577-.262,2.517,2.517,0,0,0-.755-.094,2.4,2.4,0,0,0-1.936.808,3.078,3.078,0,0,0-.687,2.067,3.418,3.418,0,0,0,.2,1.233,2.225,2.225,0,0,0,1.359,1.354,2.731,2.731,0,0,0,.934.162,3.478,3.478,0,0,0,.7-.079,2.264,2.264,0,0,0,.745-.31l.084-.126.063-.619-.1-.042A2.035,2.035,0,0,1,647.6,482.588Z" transform="translate(-335.771 -270.932)" fill="#fff"></path>
    <path id="Path_15" data-name="Path 15" d="M635.748,470.123l.074-.084.01-.651-.073-.084-.672.063-.084.084-.011.651.084.084Z" transform="translate(-328.717 -265.172)" fill="#fff"></path>
    <path id="Path_16" data-name="Path 16" d="M635.857,479.006q0-.262.005-.509t.026-.624l-.063-.063-.63.094-.063.063q.031.472.047.96t.037,1.17q.011.818.011,1.752,0,.64-.011,1.333l.053.052.63-.011.063-.063q-.042-.986-.073-2.077T635.857,479.006Z" transform="translate(-328.815 -271.128)" fill="#fff"></path>
    <path id="Path_17" data-name="Path 17" d="M473.905,471.437a2.261,2.261,0,0,0-.677-.378,2.171,2.171,0,0,0-.719-.126,3.39,3.39,0,0,0-.519.047,3.118,3.118,0,0,0-.646.183c-.1.049-.19.091-.257.126a1.741,1.741,0,0,0-.225.147q0-.367-.01-.861v-.514q0-.451.005-.808t.026-.934v-.189l-.063-.052-.661.115-.063.073q.032.336.042.525c.007.126.014.276.021.451s.021.724.042,1.648v.294q.021,1.742.021,2.623,0,1.71-.01,2.56l.063.063,1.28-.021h.031a6.454,6.454,0,0,0,1.249-.163,2.333,2.333,0,0,0,1.018-.572,2.7,2.7,0,0,0,.677-.939,2.944,2.944,0,0,0,.257-1.223,3.011,3.011,0,0,0-.231-1.164A2.362,2.362,0,0,0,473.905,471.437Zm-.037,3.19a1.8,1.8,0,0,1-.719.819,2.4,2.4,0,0,1-.855.32,4.979,4.979,0,0,1-.887.089h-.031q-.042,0-.252-.01h-.262v-3.789l.021-.021c.091-.07.168-.126.231-.168a2.007,2.007,0,0,1,.252-.136,2.267,2.267,0,0,1,.519-.173,2.363,2.363,0,0,1,.446-.047,1.669,1.669,0,0,1,1.254.545,2.058,2.058,0,0,1,.519,1.48A2.629,2.629,0,0,1,473.869,474.627Z" transform="translate(-213.259 -264.314)" fill="#fff"></path>
    <path id="Path_18" data-name="Path 18" d="M495.945,481.15c0-.112,0-.231.01-.357v-1.175q0-.461-.005-.677a2.962,2.962,0,0,0-.032-.383.926.926,0,0,0-.089-.288,1.184,1.184,0,0,0-.178-.247,1.337,1.337,0,0,0-.535-.362,2.4,2.4,0,0,0-.861-.131,3.09,3.09,0,0,0-.792.089,7,7,0,0,0-.75.258h-.01l-.052.073-.031.493.084.042a4.592,4.592,0,0,1,.724-.309,2.709,2.709,0,0,1,.766-.089,1.292,1.292,0,0,1,.708.157.9.9,0,0,1,.32.325,2.32,2.32,0,0,1,.095.693v.136l-.924.136a8.038,8.038,0,0,0-1.049.226,1.935,1.935,0,0,0-.756.415,1.555,1.555,0,0,0-.4.561,1.783,1.783,0,0,0-.141.708,1.631,1.631,0,0,0,.493,1.244,1.8,1.8,0,0,0,1.291.467,2.481,2.481,0,0,0,1.49-.525l.01.367.073.063.556-.032.063-.073v-.073q-.042-.608-.058-.944T495.945,481.15Zm-.629.881a3.143,3.143,0,0,1-.625.42,1.7,1.7,0,0,1-.75.147,1.161,1.161,0,0,1-.918-.362,1.207,1.207,0,0,1-.32-.824.947.947,0,0,1,.163-.577,1.487,1.487,0,0,1,.85-.6q.309-.094,1.033-.231l.567-.084Z" transform="translate(-228.625 -270.932)" fill="#fff"></path>
    <path id="Path_19" data-name="Path 19" d="M451.361,478.621a1.974,1.974,0,0,0-.719-.777,2.3,2.3,0,0,0-1.264-.315,2.689,2.689,0,0,0-1.238.273,2.147,2.147,0,0,0-.881.871,2.393,2.393,0,0,0-.289.771,4.877,4.877,0,0,0-.079.908,4.077,4.077,0,0,0,.142,1.1,2.584,2.584,0,0,0,.436.892,1.99,1.99,0,0,0,.756.6,2.564,2.564,0,0,0,1.091.215,2.638,2.638,0,0,0,.913-.157,2.1,2.1,0,0,0,.771-.5,2.387,2.387,0,0,0,.541-.892,3.881,3.881,0,0,0,.2-1.317,4.63,4.63,0,0,0-.073-.782A3.226,3.226,0,0,0,451.361,478.621Zm-.409,2.576a2.153,2.153,0,0,1-.283.729,1.388,1.388,0,0,1-.541.493,1.752,1.752,0,0,1-.824.179,1.535,1.535,0,0,1-.955-.273,1.575,1.575,0,0,1-.514-.656,2.813,2.813,0,0,1-.2-.714,4.861,4.861,0,0,1-.042-.614,4.473,4.473,0,0,1,.068-.792,2.344,2.344,0,0,1,.252-.719,1.432,1.432,0,0,1,.535-.546,1.684,1.684,0,0,1,.876-.21,3.013,3.013,0,0,1,.347.021,1.361,1.361,0,0,1,.829.446,1.763,1.763,0,0,1,.346.593,2.844,2.844,0,0,1,.131.541,5.183,5.183,0,0,1,.058.614A4.574,4.574,0,0,1,450.952,481.2Z" transform="translate(-197.011 -270.932)" fill="#fff"></path>
    <path id="Path_20" data-name="Path 20" d="M437.433,469.658q0-.624.026-1.516l-.063-.063-.661.1-.063.063q.041.6.058.939t.026.845q.021.766.021,3.106v3.222l.063.063.608-.011.063-.063q-.084-2.046-.084-5.394Q437.428,470.283,437.433,469.658Z" transform="translate(-189.856 -264.314)" fill="#fff"></path>
    <path id="Path_21" data-name="Path 21" d="M418.393,477.82l-.472-.01a6.839,6.839,0,0,0-1.149.079,1.771,1.771,0,0,0-.834.4,2.038,2.038,0,0,0-.435.562,1.765,1.765,0,0,0-.194.866,1.98,1.98,0,0,0,.089.625,1.435,1.435,0,0,0,.231.446,1.676,1.676,0,0,0,.283.289q.141.11.372.257-.168.294-.257.446t-.331.5l.031.105.462.2q-.189.136-.346.273a2.518,2.518,0,0,0-.31.325,1.687,1.687,0,0,0-.252.441,1.471,1.471,0,0,0-.1.546,1.435,1.435,0,0,0,.189.734,1.581,1.581,0,0,0,.509.535,2.549,2.549,0,0,0,.714.32,2.964,2.964,0,0,0,.8.11,3.111,3.111,0,0,0,.85-.116,2.316,2.316,0,0,0,.729-.346,1.7,1.7,0,0,0,.5-.567,1.55,1.55,0,0,0,.184-.756,1.367,1.367,0,0,0-.241-.792,1.64,1.64,0,0,0-.735-.561q-.137-.063-.278-.116t-.572-.178l-.378-.1-.944-.283.336-.567h.031a2.648,2.648,0,0,0,.535.073,2.1,2.1,0,0,0,.74-.131,1.971,1.971,0,0,0,.625-.373,1.69,1.69,0,0,0,.425-.577,1.762,1.762,0,0,0,.152-.735,1.53,1.53,0,0,0-.215-.866,2.421,2.421,0,0,0-.488-.54l1.049.063.073-.063.042-.441-.042-.073Zm-1.731,4.932.01-.01c.161.049.287.084.378.105l.708.21q.247.073.436.147l.031.01c.077.035.156.073.236.115a1.274,1.274,0,0,1,.241.168.8.8,0,0,1,.2.273.932.932,0,0,1,.079.4,1.085,1.085,0,0,1-.388.818,1.654,1.654,0,0,1-1.154.357,2.114,2.114,0,0,1-.74-.116,1.37,1.37,0,0,1-.5-.3,1.251,1.251,0,0,1-.278-.4,1.107,1.107,0,0,1-.089-.425,1.178,1.178,0,0,1,.231-.735A3.735,3.735,0,0,1,416.662,482.752Zm2.046-3.085a1.417,1.417,0,0,1-.362.981,1.29,1.29,0,0,1-1.012.4,1.479,1.479,0,0,1-.96-.336,1.193,1.193,0,0,1-.415-.986,1.4,1.4,0,0,1,.372-.981,1.363,1.363,0,0,1,1.055-.4,1.228,1.228,0,0,1,.965.388A1.4,1.4,0,0,1,418.708,479.667Z" transform="translate(-174.809 -271.128)" fill="#fff"></path>
    <path id="Path_22" data-name="Path 22" d="M552.529,478.621a1.978,1.978,0,0,0-.719-.777,2.3,2.3,0,0,0-1.264-.315,2.689,2.689,0,0,0-1.238.273,2.149,2.149,0,0,0-.881.871,2.4,2.4,0,0,0-.289.771,4.88,4.88,0,0,0-.079.908,4.089,4.089,0,0,0,.142,1.1,2.591,2.591,0,0,0,.436.892,1.992,1.992,0,0,0,.756.6,2.564,2.564,0,0,0,1.091.215A2.638,2.638,0,0,0,551.4,483a2.106,2.106,0,0,0,.771-.5,2.391,2.391,0,0,0,.54-.892,3.882,3.882,0,0,0,.2-1.317,4.627,4.627,0,0,0-.073-.782A3.235,3.235,0,0,0,552.529,478.621Zm-.409,2.576a2.153,2.153,0,0,1-.283.729,1.386,1.386,0,0,1-.541.493,1.752,1.752,0,0,1-.824.179,1.534,1.534,0,0,1-.955-.273,1.573,1.573,0,0,1-.514-.656,2.826,2.826,0,0,1-.2-.714,4.856,4.856,0,0,1-.042-.614,4.47,4.47,0,0,1,.068-.792,2.335,2.335,0,0,1,.252-.719,1.429,1.429,0,0,1,.535-.546,1.685,1.685,0,0,1,.876-.21,3.008,3.008,0,0,1,.346.021,1.362,1.362,0,0,1,.829.446,1.764,1.764,0,0,1,.346.593,2.851,2.851,0,0,1,.131.541,5.248,5.248,0,0,1,.058.614A4.573,4.573,0,0,1,552.12,481.2Z" transform="translate(-267.847 -270.932)" fill="#fff"></path>
    <path id="Path_23" data-name="Path 23" d="M539.176,469.658q.005-.624.026-1.516l-.063-.063-.661.1-.063.063q.041.6.058.939t.026.845q.021.766.021,3.106v3.222l.063.063.609-.011.063-.063q-.084-2.046-.084-5.394Q539.171,470.283,539.176,469.658Z" transform="translate(-261.095 -264.314)" fill="#fff"></path>
    <path id="Path_24" data-name="Path 24" d="M514.257,469.658q.005-.624.026-1.516l-.063-.063-.661.1-.063.063q.042.6.058.939t.026.845q.021.766.021,3.106v3.222l.063.063.609-.011.063-.063q-.084-2.046-.084-5.394Q514.252,470.283,514.257,469.658Z" transform="translate(-243.647 -264.314)" fill="#fff"></path>
    <path id="Path_25" data-name="Path 25" d="M353.668,298.7c-3.071,3.072-3.8,7.32-1.634,9.489s6.417,1.437,9.489-1.634,3.8-7.319,1.634-9.489S356.739,295.629,353.668,298.7Z" transform="translate(-129.72 -143.7)" fill="#fff"></path>
    <path id="Path_26" data-name="Path 26" d="M348.918,255.778a8.43,8.43,0,0,1,6.334,2.331c.608-.051-2.382-3.309-8.158-3.243-10.993.125-21.533,10.4-21.688,22.094a12.632,12.632,0,0,0,4.333,9.628c.215.215.38.152.38.152s-3.377-2.585-3.294-9.375C326.917,269.706,335.162,257.026,348.918,255.778Z" transform="translate(-111.948 -115.025)" fill="#fff"></path>
    <path id="Path_27" data-name="Path 27" d="M333.608,243.015a8.82,8.82,0,0,1,4.662.608c.574.2-.912-1.621-5.27-1.621-7.5-.355-19.661,9.425-20.269,20.725a15.362,15.362,0,0,0,.627,4.42,18.64,18.64,0,0,1,.184-5.353C314.251,257.406,321.954,244.585,333.608,243.015Z" transform="translate(-103.075 -106.012)" fill="#fff"></path>
    <path id="Path_28" data-name="Path 28" d="M314.9,326.235c-.029-.12-.056-.231-.083-.343C314.9,326.48,314.986,326.619,314.9,326.235Z" transform="translate(-104.538 -164.757)" fill="#fff"></path>
    <path id="Path_29" data-name="Path 29" d="M321.578,236.783c-1.267.3-13.124,3.446-15.608,16.064,0,.456,2.065-9.425,15.329-15.772C321.831,236.783,321.578,236.783,321.578,236.783Z" transform="translate(-98.341 -102.365)" fill="#fff"></path>
    <path id="Path_30" data-name="Path 30" d="M433.914,310.044c10.236-7.257,16.918-16.671,19.96-25.984C450.768,293.367,444.063,302.744,433.914,310.044Z" transform="translate(-187.925 -135.467)" fill="#fff"></path>
    <path id="Path_31" data-name="Path 31" d="M206.16,161.694l-.76-1.026-14.974,15.144a31.526,31.526,0,0,1-4.079-15.3,36.57,36.57,0,0,1,2.751-13.6l14.528.328v-1.191l-14.134-.085a53.527,53.527,0,0,1,12.338-17.328l6.458,6.645,1.013-.862-6.653-6.553a63.192,63.192,0,0,1,18.029-11.652v12.3h1.064l-.178-12.666a50.137,50.137,0,0,1,18.648-3.828,34.925,34.925,0,0,1,12.126,1.986l-18.055,17.853.895.895,17.99-18.432c12.587,5.11,17,18.035,13.544,31.64l-14.262.086v1.09l14.037-.319c-.164.591-.344,1.182-.538,1.775q.3-.888.551-1.775l23.6-.537a.23.23,0,0,0-.007-.46l-23.365.141c3.538-13.537-.635-26.488-13.037-32.179l7.8-7.993a.286.286,0,0,0,.044-.341l-.013-.022a.286.286,0,0,0-.449-.061l-8.166,8.074A36.041,36.041,0,0,0,240.44,110.8a55.684,55.684,0,0,0-18.9,3.291l-.326-23.245a.268.268,0,0,0-.536,0v23.56A59.042,59.042,0,0,0,201.3,126.537l-18.828-18.546a.254.254,0,0,0-.36.357l18.4,18.935a56.752,56.752,0,0,0-12.926,18.668l-21.787-.13a.281.281,0,0,0-.008.562l21.426.484a37.985,37.985,0,0,0-2.8,13.723,24.97,24.97,0,0,0,5.181,16.055l-10.7,10.822a.272.272,0,0,0,.383.386l10.849-10.56a26.567,26.567,0,0,0,4.221,4,26.308,26.308,0,0,1-3.484-4.715Z" fill="#fff"></path>
  </g>
</svg>