<?xml version="1.0" standalone="no"?>
<!DOCTYPE svg PUBLIC "-//W3C//DTD SVG 20010904//EN"
 "http://www.w3.org/TR/2001/REC-SVG-20010904/DTD/svg10.dtd">
<svg version="1.0" xmlns="http://www.w3.org/2000/svg"
 width="360.000000pt" height="140.000000pt" viewBox="0 0 360.000000 140.000000"
 preserveAspectRatio="xMidYMid meet">
<metadata>
Created by potrace 1.16, written by Peter Selinger 2001-2019
</metadata>
<g transform="translate(0.000000,140.000000) scale(0.100000,-0.100000)"
fill="#000000" stroke="none">
<path d="M1070 1075 l0 -155 -55 0 -55 0 0 -50 0 -50 -45 0 -45 0 0 120 0 120
-60 0 -60 0 0 -250 0 -249 -87 -3 -88 -3 -3 -116 -3 -116 102 -77 103 -76 976
0 977 0 146 189 c81 104 147 192 147 195 0 3 -398 6 -885 6 l-885 0 0 110 0
110 35 0 35 0 0 70 0 70 -80 0 -80 0 0 155 0 155 -45 0 -45 0 0 -155z"/>
<path d="M1550 925 l0 -85 150 0 150 0 0 85 0 85 -150 0 -150 0 0 -85z"/>
<path d="M1910 925 l0 -85 140 0 140 0 0 85 0 85 -140 0 -140 0 0 -85z"/>
<path d="M2260 925 l0 -85 145 0 145 0 0 85 0 85 -145 0 -145 0 0 -85z"/>
<path d="M1550 695 l0 -85 150 0 150 0 0 85 0 85 -150 0 -150 0 0 -85z"/>
<path d="M1910 695 l0 -85 140 0 140 0 0 85 0 85 -140 0 -140 0 0 -85z"/>
<path d="M2260 695 l0 -85 145 0 145 0 0 85 0 85 -145 0 -145 0 0 -85z"/>
</g>
</svg>
